<mxfile host="app.diagrams.net" modified="2021-01-21T11:19:11.625Z" agent="5.0 (Windows NT 10.0; Win64; x64) AppleWebKit/537.36 (KHTML, like Gecko) Chrome/87.0.4280.141 Safari/537.36" etag="bvZZ_T-rsib9lch8oZj4" version="14.2.6" type="github">
  <diagram id="oegLneJ0TG4Bk5mashOg" name="Page-1">
    <mxGraphModel dx="1038" dy="588" grid="1" gridSize="10" guides="1" tooltips="1" connect="1" arrows="1" fold="1" page="1" pageScale="1" pageWidth="827" pageHeight="1169" math="0" shadow="0">
      <root>
        <mxCell id="0" />
        <mxCell id="1" parent="0" />
        <mxCell id="ZuqSpkJrBXczWj1531Pu-1" value="Particuliers" style="shape=table;startSize=30;container=1;collapsible=1;childLayout=tableLayout;fixedRows=1;rowLines=0;fontStyle=1;align=center;resizeLast=1;" vertex="1" parent="1">
          <mxGeometry x="300" y="270" width="180" height="210" as="geometry" />
        </mxCell>
        <mxCell id="ZuqSpkJrBXczWj1531Pu-2" value="" style="shape=partialRectangle;collapsible=0;dropTarget=0;pointerEvents=0;fillColor=none;top=0;left=0;bottom=1;right=0;points=[[0,0.5],[1,0.5]];portConstraint=eastwest;" vertex="1" parent="ZuqSpkJrBXczWj1531Pu-1">
          <mxGeometry y="30" width="180" height="30" as="geometry" />
        </mxCell>
        <mxCell id="ZuqSpkJrBXczWj1531Pu-3" value="PK" style="shape=partialRectangle;connectable=0;fillColor=none;top=0;left=0;bottom=0;right=0;fontStyle=1;overflow=hidden;" vertex="1" parent="ZuqSpkJrBXczWj1531Pu-2">
          <mxGeometry width="30" height="30" as="geometry" />
        </mxCell>
        <mxCell id="ZuqSpkJrBXczWj1531Pu-4" value="numero_carte" style="shape=partialRectangle;connectable=0;fillColor=none;top=0;left=0;bottom=0;right=0;align=left;spacingLeft=6;fontStyle=5;overflow=hidden;" vertex="1" parent="ZuqSpkJrBXczWj1531Pu-2">
          <mxGeometry x="30" width="150" height="30" as="geometry" />
        </mxCell>
        <mxCell id="ZuqSpkJrBXczWj1531Pu-5" value="" style="shape=partialRectangle;collapsible=0;dropTarget=0;pointerEvents=0;fillColor=none;top=0;left=0;bottom=0;right=0;points=[[0,0.5],[1,0.5]];portConstraint=eastwest;" vertex="1" parent="ZuqSpkJrBXczWj1531Pu-1">
          <mxGeometry y="60" width="180" height="30" as="geometry" />
        </mxCell>
        <mxCell id="ZuqSpkJrBXczWj1531Pu-6" value="" style="shape=partialRectangle;connectable=0;fillColor=none;top=0;left=0;bottom=0;right=0;editable=1;overflow=hidden;" vertex="1" parent="ZuqSpkJrBXczWj1531Pu-5">
          <mxGeometry width="30" height="30" as="geometry" />
        </mxCell>
        <mxCell id="ZuqSpkJrBXczWj1531Pu-7" value="nom" style="shape=partialRectangle;connectable=0;fillColor=none;top=0;left=0;bottom=0;right=0;align=left;spacingLeft=6;overflow=hidden;" vertex="1" parent="ZuqSpkJrBXczWj1531Pu-5">
          <mxGeometry x="30" width="150" height="30" as="geometry" />
        </mxCell>
        <mxCell id="ZuqSpkJrBXczWj1531Pu-8" value="" style="shape=partialRectangle;collapsible=0;dropTarget=0;pointerEvents=0;fillColor=none;top=0;left=0;bottom=0;right=0;points=[[0,0.5],[1,0.5]];portConstraint=eastwest;" vertex="1" parent="ZuqSpkJrBXczWj1531Pu-1">
          <mxGeometry y="90" width="180" height="30" as="geometry" />
        </mxCell>
        <mxCell id="ZuqSpkJrBXczWj1531Pu-9" value="" style="shape=partialRectangle;connectable=0;fillColor=none;top=0;left=0;bottom=0;right=0;editable=1;overflow=hidden;" vertex="1" parent="ZuqSpkJrBXczWj1531Pu-8">
          <mxGeometry width="30" height="30" as="geometry" />
        </mxCell>
        <mxCell id="ZuqSpkJrBXczWj1531Pu-10" value="prenom" style="shape=partialRectangle;connectable=0;fillColor=none;top=0;left=0;bottom=0;right=0;align=left;spacingLeft=6;overflow=hidden;" vertex="1" parent="ZuqSpkJrBXczWj1531Pu-8">
          <mxGeometry x="30" width="150" height="30" as="geometry" />
        </mxCell>
        <mxCell id="ZuqSpkJrBXczWj1531Pu-15" value="" style="shape=partialRectangle;collapsible=0;dropTarget=0;pointerEvents=0;fillColor=none;top=0;left=0;bottom=0;right=0;points=[[0,0.5],[1,0.5]];portConstraint=eastwest;" vertex="1" parent="ZuqSpkJrBXczWj1531Pu-1">
          <mxGeometry y="120" width="180" height="30" as="geometry" />
        </mxCell>
        <mxCell id="ZuqSpkJrBXczWj1531Pu-16" value="" style="shape=partialRectangle;connectable=0;fillColor=none;top=0;left=0;bottom=0;right=0;editable=1;overflow=hidden;" vertex="1" parent="ZuqSpkJrBXczWj1531Pu-15">
          <mxGeometry width="30" height="30" as="geometry" />
        </mxCell>
        <mxCell id="ZuqSpkJrBXczWj1531Pu-17" value="adresse" style="shape=partialRectangle;connectable=0;fillColor=none;top=0;left=0;bottom=0;right=0;align=left;spacingLeft=6;overflow=hidden;" vertex="1" parent="ZuqSpkJrBXczWj1531Pu-15">
          <mxGeometry x="30" width="150" height="30" as="geometry" />
        </mxCell>
        <mxCell id="ZuqSpkJrBXczWj1531Pu-23" value="" style="shape=partialRectangle;collapsible=0;dropTarget=0;pointerEvents=0;fillColor=none;top=0;left=0;bottom=0;right=0;points=[[0,0.5],[1,0.5]];portConstraint=eastwest;" vertex="1" parent="ZuqSpkJrBXczWj1531Pu-1">
          <mxGeometry y="150" width="180" height="30" as="geometry" />
        </mxCell>
        <mxCell id="ZuqSpkJrBXczWj1531Pu-24" value="" style="shape=partialRectangle;connectable=0;fillColor=none;top=0;left=0;bottom=0;right=0;editable=1;overflow=hidden;" vertex="1" parent="ZuqSpkJrBXczWj1531Pu-23">
          <mxGeometry width="30" height="30" as="geometry" />
        </mxCell>
        <mxCell id="ZuqSpkJrBXczWj1531Pu-25" value="email" style="shape=partialRectangle;connectable=0;fillColor=none;top=0;left=0;bottom=0;right=0;align=left;spacingLeft=6;overflow=hidden;" vertex="1" parent="ZuqSpkJrBXczWj1531Pu-23">
          <mxGeometry x="30" width="150" height="30" as="geometry" />
        </mxCell>
        <mxCell id="ZuqSpkJrBXczWj1531Pu-19" value="" style="shape=partialRectangle;collapsible=0;dropTarget=0;pointerEvents=0;fillColor=none;top=0;left=0;bottom=0;right=0;points=[[0,0.5],[1,0.5]];portConstraint=eastwest;" vertex="1" parent="ZuqSpkJrBXczWj1531Pu-1">
          <mxGeometry y="180" width="180" height="30" as="geometry" />
        </mxCell>
        <mxCell id="ZuqSpkJrBXczWj1531Pu-20" value="" style="shape=partialRectangle;connectable=0;fillColor=none;top=0;left=0;bottom=0;right=0;editable=1;overflow=hidden;" vertex="1" parent="ZuqSpkJrBXczWj1531Pu-19">
          <mxGeometry width="30" height="30" as="geometry" />
        </mxCell>
        <mxCell id="ZuqSpkJrBXczWj1531Pu-21" value="telephone" style="shape=partialRectangle;connectable=0;fillColor=none;top=0;left=0;bottom=0;right=0;align=left;spacingLeft=6;overflow=hidden;" vertex="1" parent="ZuqSpkJrBXczWj1531Pu-19">
          <mxGeometry x="30" width="150" height="30" as="geometry" />
        </mxCell>
        <mxCell id="ZuqSpkJrBXczWj1531Pu-26" value="Livres" style="shape=table;startSize=30;container=1;collapsible=1;childLayout=tableLayout;fixedRows=1;rowLines=0;fontStyle=1;align=center;resizeLast=1;" vertex="1" parent="1">
          <mxGeometry x="300" y="520" width="180" height="210" as="geometry" />
        </mxCell>
        <mxCell id="ZuqSpkJrBXczWj1531Pu-27" value="" style="shape=partialRectangle;collapsible=0;dropTarget=0;pointerEvents=0;fillColor=none;top=0;left=0;bottom=1;right=0;points=[[0,0.5],[1,0.5]];portConstraint=eastwest;" vertex="1" parent="ZuqSpkJrBXczWj1531Pu-26">
          <mxGeometry y="30" width="180" height="30" as="geometry" />
        </mxCell>
        <mxCell id="ZuqSpkJrBXczWj1531Pu-28" value="PK" style="shape=partialRectangle;connectable=0;fillColor=none;top=0;left=0;bottom=0;right=0;fontStyle=1;overflow=hidden;" vertex="1" parent="ZuqSpkJrBXczWj1531Pu-27">
          <mxGeometry width="30" height="30" as="geometry" />
        </mxCell>
        <mxCell id="ZuqSpkJrBXczWj1531Pu-29" value="ref_livre" style="shape=partialRectangle;connectable=0;fillColor=none;top=0;left=0;bottom=0;right=0;align=left;spacingLeft=6;fontStyle=5;overflow=hidden;" vertex="1" parent="ZuqSpkJrBXczWj1531Pu-27">
          <mxGeometry x="30" width="150" height="30" as="geometry" />
        </mxCell>
        <mxCell id="ZuqSpkJrBXczWj1531Pu-30" value="" style="shape=partialRectangle;collapsible=0;dropTarget=0;pointerEvents=0;fillColor=none;top=0;left=0;bottom=0;right=0;points=[[0,0.5],[1,0.5]];portConstraint=eastwest;" vertex="1" parent="ZuqSpkJrBXczWj1531Pu-26">
          <mxGeometry y="60" width="180" height="30" as="geometry" />
        </mxCell>
        <mxCell id="ZuqSpkJrBXczWj1531Pu-31" value="" style="shape=partialRectangle;connectable=0;fillColor=none;top=0;left=0;bottom=0;right=0;editable=1;overflow=hidden;" vertex="1" parent="ZuqSpkJrBXczWj1531Pu-30">
          <mxGeometry width="30" height="30" as="geometry" />
        </mxCell>
        <mxCell id="ZuqSpkJrBXczWj1531Pu-32" value="titre" style="shape=partialRectangle;connectable=0;fillColor=none;top=0;left=0;bottom=0;right=0;align=left;spacingLeft=6;overflow=hidden;" vertex="1" parent="ZuqSpkJrBXczWj1531Pu-30">
          <mxGeometry x="30" width="150" height="30" as="geometry" />
        </mxCell>
        <mxCell id="ZuqSpkJrBXczWj1531Pu-33" value="" style="shape=partialRectangle;collapsible=0;dropTarget=0;pointerEvents=0;fillColor=none;top=0;left=0;bottom=0;right=0;points=[[0,0.5],[1,0.5]];portConstraint=eastwest;" vertex="1" parent="ZuqSpkJrBXczWj1531Pu-26">
          <mxGeometry y="90" width="180" height="30" as="geometry" />
        </mxCell>
        <mxCell id="ZuqSpkJrBXczWj1531Pu-34" value="" style="shape=partialRectangle;connectable=0;fillColor=none;top=0;left=0;bottom=0;right=0;editable=1;overflow=hidden;" vertex="1" parent="ZuqSpkJrBXczWj1531Pu-33">
          <mxGeometry width="30" height="30" as="geometry" />
        </mxCell>
        <mxCell id="ZuqSpkJrBXczWj1531Pu-35" value="auteur" style="shape=partialRectangle;connectable=0;fillColor=none;top=0;left=0;bottom=0;right=0;align=left;spacingLeft=6;overflow=hidden;" vertex="1" parent="ZuqSpkJrBXczWj1531Pu-33">
          <mxGeometry x="30" width="150" height="30" as="geometry" />
        </mxCell>
        <mxCell id="ZuqSpkJrBXczWj1531Pu-36" value="" style="shape=partialRectangle;collapsible=0;dropTarget=0;pointerEvents=0;fillColor=none;top=0;left=0;bottom=0;right=0;points=[[0,0.5],[1,0.5]];portConstraint=eastwest;" vertex="1" parent="ZuqSpkJrBXczWj1531Pu-26">
          <mxGeometry y="120" width="180" height="30" as="geometry" />
        </mxCell>
        <mxCell id="ZuqSpkJrBXczWj1531Pu-37" value="" style="shape=partialRectangle;connectable=0;fillColor=none;top=0;left=0;bottom=0;right=0;editable=1;overflow=hidden;" vertex="1" parent="ZuqSpkJrBXczWj1531Pu-36">
          <mxGeometry width="30" height="30" as="geometry" />
        </mxCell>
        <mxCell id="ZuqSpkJrBXczWj1531Pu-38" value="resume" style="shape=partialRectangle;connectable=0;fillColor=none;top=0;left=0;bottom=0;right=0;align=left;spacingLeft=6;overflow=hidden;" vertex="1" parent="ZuqSpkJrBXczWj1531Pu-36">
          <mxGeometry x="30" width="150" height="30" as="geometry" />
        </mxCell>
        <mxCell id="ZuqSpkJrBXczWj1531Pu-39" value="" style="shape=partialRectangle;collapsible=0;dropTarget=0;pointerEvents=0;fillColor=none;top=0;left=0;bottom=0;right=0;points=[[0,0.5],[1,0.5]];portConstraint=eastwest;" vertex="1" parent="ZuqSpkJrBXczWj1531Pu-26">
          <mxGeometry y="150" width="180" height="20" as="geometry" />
        </mxCell>
        <mxCell id="ZuqSpkJrBXczWj1531Pu-40" value="" style="shape=partialRectangle;connectable=0;fillColor=none;top=0;left=0;bottom=0;right=0;editable=1;overflow=hidden;" vertex="1" parent="ZuqSpkJrBXczWj1531Pu-39">
          <mxGeometry width="30" height="20" as="geometry" />
        </mxCell>
        <mxCell id="ZuqSpkJrBXczWj1531Pu-41" value="date_parution" style="shape=partialRectangle;connectable=0;fillColor=none;top=0;left=0;bottom=0;right=0;align=left;spacingLeft=6;overflow=hidden;" vertex="1" parent="ZuqSpkJrBXczWj1531Pu-39">
          <mxGeometry x="30" width="150" height="20" as="geometry" />
        </mxCell>
        <mxCell id="ZuqSpkJrBXczWj1531Pu-95" value="" style="shape=partialRectangle;collapsible=0;dropTarget=0;pointerEvents=0;fillColor=none;top=0;left=0;bottom=0;right=0;points=[[0,0.5],[1,0.5]];portConstraint=eastwest;" vertex="1" parent="ZuqSpkJrBXczWj1531Pu-26">
          <mxGeometry y="170" width="180" height="30" as="geometry" />
        </mxCell>
        <mxCell id="ZuqSpkJrBXczWj1531Pu-96" value="FK" style="shape=partialRectangle;connectable=0;fillColor=none;top=0;left=0;bottom=0;right=0;editable=1;overflow=hidden;" vertex="1" parent="ZuqSpkJrBXczWj1531Pu-95">
          <mxGeometry width="30" height="30" as="geometry" />
        </mxCell>
        <mxCell id="ZuqSpkJrBXczWj1531Pu-97" value="ref_biblio" style="shape=partialRectangle;connectable=0;fillColor=none;top=0;left=0;bottom=0;right=0;align=left;spacingLeft=6;overflow=hidden;" vertex="1" parent="ZuqSpkJrBXczWj1531Pu-95">
          <mxGeometry x="30" width="150" height="30" as="geometry" />
        </mxCell>
        <mxCell id="ZuqSpkJrBXczWj1531Pu-48" value="Bibliothèques" style="shape=table;startSize=30;container=1;collapsible=1;childLayout=tableLayout;fixedRows=1;rowLines=0;fontStyle=1;align=center;resizeLast=1;" vertex="1" parent="1">
          <mxGeometry x="300" y="770" width="180" height="100" as="geometry" />
        </mxCell>
        <mxCell id="ZuqSpkJrBXczWj1531Pu-49" value="" style="shape=partialRectangle;collapsible=0;dropTarget=0;pointerEvents=0;fillColor=none;top=0;left=0;bottom=1;right=0;points=[[0,0.5],[1,0.5]];portConstraint=eastwest;" vertex="1" parent="ZuqSpkJrBXczWj1531Pu-48">
          <mxGeometry y="30" width="180" height="30" as="geometry" />
        </mxCell>
        <mxCell id="ZuqSpkJrBXczWj1531Pu-50" value="PK" style="shape=partialRectangle;connectable=0;fillColor=none;top=0;left=0;bottom=0;right=0;fontStyle=1;overflow=hidden;" vertex="1" parent="ZuqSpkJrBXczWj1531Pu-49">
          <mxGeometry width="30" height="30" as="geometry" />
        </mxCell>
        <mxCell id="ZuqSpkJrBXczWj1531Pu-51" value="ref_biblio" style="shape=partialRectangle;connectable=0;fillColor=none;top=0;left=0;bottom=0;right=0;align=left;spacingLeft=6;fontStyle=5;overflow=hidden;" vertex="1" parent="ZuqSpkJrBXczWj1531Pu-49">
          <mxGeometry x="30" width="150" height="30" as="geometry" />
        </mxCell>
        <mxCell id="ZuqSpkJrBXczWj1531Pu-52" value="" style="shape=partialRectangle;collapsible=0;dropTarget=0;pointerEvents=0;fillColor=none;top=0;left=0;bottom=0;right=0;points=[[0,0.5],[1,0.5]];portConstraint=eastwest;" vertex="1" parent="ZuqSpkJrBXczWj1531Pu-48">
          <mxGeometry y="60" width="180" height="30" as="geometry" />
        </mxCell>
        <mxCell id="ZuqSpkJrBXczWj1531Pu-53" value="" style="shape=partialRectangle;connectable=0;fillColor=none;top=0;left=0;bottom=0;right=0;editable=1;overflow=hidden;" vertex="1" parent="ZuqSpkJrBXczWj1531Pu-52">
          <mxGeometry width="30" height="30" as="geometry" />
        </mxCell>
        <mxCell id="ZuqSpkJrBXczWj1531Pu-54" value="adresse" style="shape=partialRectangle;connectable=0;fillColor=none;top=0;left=0;bottom=0;right=0;align=left;spacingLeft=6;overflow=hidden;" vertex="1" parent="ZuqSpkJrBXczWj1531Pu-52">
          <mxGeometry x="30" width="150" height="30" as="geometry" />
        </mxCell>
        <mxCell id="ZuqSpkJrBXczWj1531Pu-65" value="" style="edgeStyle=entityRelationEdgeStyle;fontSize=12;html=1;endArrow=ERoneToMany;entryX=0;entryY=0.5;entryDx=0;entryDy=0;" edge="1" parent="1" target="ZuqSpkJrBXczWj1531Pu-102">
          <mxGeometry width="100" height="100" relative="1" as="geometry">
            <mxPoint x="480" y="295" as="sourcePoint" />
            <mxPoint x="330" y="95" as="targetPoint" />
          </mxGeometry>
        </mxCell>
        <mxCell id="ZuqSpkJrBXczWj1531Pu-79" value="Emprunts" style="shape=table;startSize=30;container=1;collapsible=1;childLayout=tableLayout;fixedRows=1;rowLines=0;fontStyle=1;align=center;resizeLast=1;" vertex="1" parent="1">
          <mxGeometry x="560" y="600" width="180" height="160" as="geometry" />
        </mxCell>
        <mxCell id="ZuqSpkJrBXczWj1531Pu-80" value="" style="shape=partialRectangle;collapsible=0;dropTarget=0;pointerEvents=0;fillColor=none;top=0;left=0;bottom=0;right=0;points=[[0,0.5],[1,0.5]];portConstraint=eastwest;" vertex="1" parent="ZuqSpkJrBXczWj1531Pu-79">
          <mxGeometry y="30" width="180" height="30" as="geometry" />
        </mxCell>
        <mxCell id="ZuqSpkJrBXczWj1531Pu-81" value="PK,FK1" style="shape=partialRectangle;connectable=0;fillColor=none;top=0;left=0;bottom=0;right=0;fontStyle=1;overflow=hidden;" vertex="1" parent="ZuqSpkJrBXczWj1531Pu-80">
          <mxGeometry width="60" height="30" as="geometry" />
        </mxCell>
        <mxCell id="ZuqSpkJrBXczWj1531Pu-82" value="ref_particulier" style="shape=partialRectangle;connectable=0;fillColor=none;top=0;left=0;bottom=0;right=0;align=left;spacingLeft=6;fontStyle=5;overflow=hidden;" vertex="1" parent="ZuqSpkJrBXczWj1531Pu-80">
          <mxGeometry x="60" width="120" height="30" as="geometry" />
        </mxCell>
        <mxCell id="ZuqSpkJrBXczWj1531Pu-83" value="" style="shape=partialRectangle;collapsible=0;dropTarget=0;pointerEvents=0;fillColor=none;top=0;left=0;bottom=1;right=0;points=[[0,0.5],[1,0.5]];portConstraint=eastwest;" vertex="1" parent="ZuqSpkJrBXczWj1531Pu-79">
          <mxGeometry y="60" width="180" height="30" as="geometry" />
        </mxCell>
        <mxCell id="ZuqSpkJrBXczWj1531Pu-84" value="PK,FK2" style="shape=partialRectangle;connectable=0;fillColor=none;top=0;left=0;bottom=0;right=0;fontStyle=1;overflow=hidden;" vertex="1" parent="ZuqSpkJrBXczWj1531Pu-83">
          <mxGeometry width="60" height="30" as="geometry" />
        </mxCell>
        <mxCell id="ZuqSpkJrBXczWj1531Pu-85" value="ref_livre" style="shape=partialRectangle;connectable=0;fillColor=none;top=0;left=0;bottom=0;right=0;align=left;spacingLeft=6;fontStyle=5;overflow=hidden;" vertex="1" parent="ZuqSpkJrBXczWj1531Pu-83">
          <mxGeometry x="60" width="120" height="30" as="geometry" />
        </mxCell>
        <mxCell id="ZuqSpkJrBXczWj1531Pu-86" value="" style="shape=partialRectangle;collapsible=0;dropTarget=0;pointerEvents=0;fillColor=none;top=0;left=0;bottom=0;right=0;points=[[0,0.5],[1,0.5]];portConstraint=eastwest;" vertex="1" parent="ZuqSpkJrBXczWj1531Pu-79">
          <mxGeometry y="90" width="180" height="30" as="geometry" />
        </mxCell>
        <mxCell id="ZuqSpkJrBXczWj1531Pu-87" value="" style="shape=partialRectangle;connectable=0;fillColor=none;top=0;left=0;bottom=0;right=0;editable=1;overflow=hidden;" vertex="1" parent="ZuqSpkJrBXczWj1531Pu-86">
          <mxGeometry width="60" height="30" as="geometry" />
        </mxCell>
        <mxCell id="ZuqSpkJrBXczWj1531Pu-88" value="date_emprunt" style="shape=partialRectangle;connectable=0;fillColor=none;top=0;left=0;bottom=0;right=0;align=left;spacingLeft=6;overflow=hidden;" vertex="1" parent="ZuqSpkJrBXczWj1531Pu-86">
          <mxGeometry x="60" width="120" height="30" as="geometry" />
        </mxCell>
        <mxCell id="ZuqSpkJrBXczWj1531Pu-89" value="" style="shape=partialRectangle;collapsible=0;dropTarget=0;pointerEvents=0;fillColor=none;top=0;left=0;bottom=0;right=0;points=[[0,0.5],[1,0.5]];portConstraint=eastwest;" vertex="1" parent="ZuqSpkJrBXczWj1531Pu-79">
          <mxGeometry y="120" width="180" height="30" as="geometry" />
        </mxCell>
        <mxCell id="ZuqSpkJrBXczWj1531Pu-90" value="" style="shape=partialRectangle;connectable=0;fillColor=none;top=0;left=0;bottom=0;right=0;editable=1;overflow=hidden;" vertex="1" parent="ZuqSpkJrBXczWj1531Pu-89">
          <mxGeometry width="60" height="30" as="geometry" />
        </mxCell>
        <mxCell id="ZuqSpkJrBXczWj1531Pu-91" value="date_retour" style="shape=partialRectangle;connectable=0;fillColor=none;top=0;left=0;bottom=0;right=0;align=left;spacingLeft=6;overflow=hidden;" vertex="1" parent="ZuqSpkJrBXczWj1531Pu-89">
          <mxGeometry x="60" width="120" height="30" as="geometry" />
        </mxCell>
        <mxCell id="ZuqSpkJrBXczWj1531Pu-92" value="" style="edgeStyle=entityRelationEdgeStyle;fontSize=12;html=1;endArrow=ERoneToMany;exitX=1;exitY=0.25;exitDx=0;exitDy=0;entryX=0;entryY=0.5;entryDx=0;entryDy=0;" edge="1" parent="1" source="ZuqSpkJrBXczWj1531Pu-26" target="ZuqSpkJrBXczWj1531Pu-105">
          <mxGeometry width="100" height="100" relative="1" as="geometry">
            <mxPoint x="270" y="320" as="sourcePoint" />
            <mxPoint x="340" y="95" as="targetPoint" />
          </mxGeometry>
        </mxCell>
        <mxCell id="ZuqSpkJrBXczWj1531Pu-93" value="" style="edgeStyle=entityRelationEdgeStyle;fontSize=12;html=1;endArrow=ERoneToMany;exitX=1;exitY=0.5;exitDx=0;exitDy=0;entryX=1;entryY=0.5;entryDx=0;entryDy=0;" edge="1" parent="1" source="ZuqSpkJrBXczWj1531Pu-49" target="ZuqSpkJrBXczWj1531Pu-95">
          <mxGeometry width="100" height="100" relative="1" as="geometry">
            <mxPoint x="440" y="530" as="sourcePoint" />
            <mxPoint x="160" y="480" as="targetPoint" />
          </mxGeometry>
        </mxCell>
        <mxCell id="ZuqSpkJrBXczWj1531Pu-98" value="Emprunts" style="shape=table;startSize=30;container=1;collapsible=1;childLayout=tableLayout;fixedRows=1;rowLines=0;fontStyle=1;align=center;resizeLast=1;" vertex="1" parent="1">
          <mxGeometry x="560" y="370" width="180" height="190" as="geometry" />
        </mxCell>
        <mxCell id="ZuqSpkJrBXczWj1531Pu-99" value="" style="shape=partialRectangle;collapsible=0;dropTarget=0;pointerEvents=0;fillColor=none;top=0;left=0;bottom=1;right=0;points=[[0,0.5],[1,0.5]];portConstraint=eastwest;" vertex="1" parent="ZuqSpkJrBXczWj1531Pu-98">
          <mxGeometry y="30" width="180" height="30" as="geometry" />
        </mxCell>
        <mxCell id="ZuqSpkJrBXczWj1531Pu-100" value="PK" style="shape=partialRectangle;connectable=0;fillColor=none;top=0;left=0;bottom=0;right=0;fontStyle=1;overflow=hidden;" vertex="1" parent="ZuqSpkJrBXczWj1531Pu-99">
          <mxGeometry width="30" height="30" as="geometry" />
        </mxCell>
        <mxCell id="ZuqSpkJrBXczWj1531Pu-101" value="ref_emprunt" style="shape=partialRectangle;connectable=0;fillColor=none;top=0;left=0;bottom=0;right=0;align=left;spacingLeft=6;fontStyle=5;overflow=hidden;" vertex="1" parent="ZuqSpkJrBXczWj1531Pu-99">
          <mxGeometry x="30" width="150" height="30" as="geometry" />
        </mxCell>
        <mxCell id="ZuqSpkJrBXczWj1531Pu-102" value="" style="shape=partialRectangle;collapsible=0;dropTarget=0;pointerEvents=0;fillColor=none;top=0;left=0;bottom=0;right=0;points=[[0,0.5],[1,0.5]];portConstraint=eastwest;" vertex="1" parent="ZuqSpkJrBXczWj1531Pu-98">
          <mxGeometry y="60" width="180" height="30" as="geometry" />
        </mxCell>
        <mxCell id="ZuqSpkJrBXczWj1531Pu-103" value="FK" style="shape=partialRectangle;connectable=0;fillColor=none;top=0;left=0;bottom=0;right=0;editable=1;overflow=hidden;" vertex="1" parent="ZuqSpkJrBXczWj1531Pu-102">
          <mxGeometry width="30" height="30" as="geometry" />
        </mxCell>
        <mxCell id="ZuqSpkJrBXczWj1531Pu-104" value="numero_carte" style="shape=partialRectangle;connectable=0;fillColor=none;top=0;left=0;bottom=0;right=0;align=left;spacingLeft=6;overflow=hidden;" vertex="1" parent="ZuqSpkJrBXczWj1531Pu-102">
          <mxGeometry x="30" width="150" height="30" as="geometry" />
        </mxCell>
        <mxCell id="ZuqSpkJrBXczWj1531Pu-105" value="" style="shape=partialRectangle;collapsible=0;dropTarget=0;pointerEvents=0;fillColor=none;top=0;left=0;bottom=0;right=0;points=[[0,0.5],[1,0.5]];portConstraint=eastwest;" vertex="1" parent="ZuqSpkJrBXczWj1531Pu-98">
          <mxGeometry y="90" width="180" height="30" as="geometry" />
        </mxCell>
        <mxCell id="ZuqSpkJrBXczWj1531Pu-106" value="FK" style="shape=partialRectangle;connectable=0;fillColor=none;top=0;left=0;bottom=0;right=0;editable=1;overflow=hidden;" vertex="1" parent="ZuqSpkJrBXczWj1531Pu-105">
          <mxGeometry width="30" height="30" as="geometry" />
        </mxCell>
        <mxCell id="ZuqSpkJrBXczWj1531Pu-107" value="ref_livre" style="shape=partialRectangle;connectable=0;fillColor=none;top=0;left=0;bottom=0;right=0;align=left;spacingLeft=6;overflow=hidden;" vertex="1" parent="ZuqSpkJrBXczWj1531Pu-105">
          <mxGeometry x="30" width="150" height="30" as="geometry" />
        </mxCell>
        <mxCell id="ZuqSpkJrBXczWj1531Pu-108" value="" style="shape=partialRectangle;collapsible=0;dropTarget=0;pointerEvents=0;fillColor=none;top=0;left=0;bottom=0;right=0;points=[[0,0.5],[1,0.5]];portConstraint=eastwest;" vertex="1" parent="ZuqSpkJrBXczWj1531Pu-98">
          <mxGeometry y="120" width="180" height="30" as="geometry" />
        </mxCell>
        <mxCell id="ZuqSpkJrBXczWj1531Pu-109" value="" style="shape=partialRectangle;connectable=0;fillColor=none;top=0;left=0;bottom=0;right=0;editable=1;overflow=hidden;" vertex="1" parent="ZuqSpkJrBXczWj1531Pu-108">
          <mxGeometry width="30" height="30" as="geometry" />
        </mxCell>
        <mxCell id="ZuqSpkJrBXczWj1531Pu-110" value="date_emprunt" style="shape=partialRectangle;connectable=0;fillColor=none;top=0;left=0;bottom=0;right=0;align=left;spacingLeft=6;overflow=hidden;" vertex="1" parent="ZuqSpkJrBXczWj1531Pu-108">
          <mxGeometry x="30" width="150" height="30" as="geometry" />
        </mxCell>
        <mxCell id="ZuqSpkJrBXczWj1531Pu-111" value="" style="shape=partialRectangle;collapsible=0;dropTarget=0;pointerEvents=0;fillColor=none;top=0;left=0;bottom=0;right=0;points=[[0,0.5],[1,0.5]];portConstraint=eastwest;" vertex="1" parent="ZuqSpkJrBXczWj1531Pu-98">
          <mxGeometry y="150" width="180" height="30" as="geometry" />
        </mxCell>
        <mxCell id="ZuqSpkJrBXczWj1531Pu-112" value="" style="shape=partialRectangle;connectable=0;fillColor=none;top=0;left=0;bottom=0;right=0;editable=1;overflow=hidden;" vertex="1" parent="ZuqSpkJrBXczWj1531Pu-111">
          <mxGeometry width="30" height="30" as="geometry" />
        </mxCell>
        <mxCell id="ZuqSpkJrBXczWj1531Pu-113" value="date_retour" style="shape=partialRectangle;connectable=0;fillColor=none;top=0;left=0;bottom=0;right=0;align=left;spacingLeft=6;overflow=hidden;" vertex="1" parent="ZuqSpkJrBXczWj1531Pu-111">
          <mxGeometry x="30" width="150" height="30" as="geometry" />
        </mxCell>
      </root>
    </mxGraphModel>
  </diagram>
</mxfile>
